<?xml version="1.0" encoding="UTF-8"?>
<svg version="1.1" viewBox="0 0 1180 1184" width="295" height="296" xmlns="http://www.w3.org/2000/svg">
<path transform="translate(189,20)" d="m0 0h796l25 2 22 5 20 7 25 13 14 10 10 8 15 14 11 14 9 13 9 16 7 16 7 22 3 16 2 24v775l-1 20-3 19-6 23-9 21-9 16-13 18-11 12-5 5-11 10-15 11-22 12-17 7-20 6-16 3-31 2h-774l-20-1-25-4-20-6-25-12-12-7-16-12-12-11-11-11-10-13-12-19-10-21-6-19-4-19-2-18v-796l3-23 6-23 11-26 11-18 10-13 9-10 7-8 8-7 13-10 16-10 23-11 22-7 22-4z" fill="#FDFDFD"/>
<path transform="translate(279,159)" d="m0 0h180v173l180 1 24 2 28 4 21 5 21 6 17 6 23 10 24 12 21 13 32 24 12 11 8 7 12 12 7 8 10 12 9 13 12 19 9 15 13 26 11 30 6 23 5 27 2 23v44l-2 27-4 23-9 34-7 19-15 31-14 24-12 17-10 13-9 10-12 13-13 13-11 9-15 12-19 13-13 8-27 14-26 11-31 10-30 7-31 4-12 1h-47l-26-3-31-6-25-7-29-11-26-12-25-14-12-8-14-10-16-13-16-15-10-10-7-8-11-13-14-19-12-19-15-29-7-16-11-33-5-22-3-17-2-31v-174h178v-137l-1-38h-178l-1-67v-106z" fill="#333433"/>
<path transform="translate(467,507)" d="m0 0h163l26 3 19 5 16 6 21 11 16 12 10 9 12 12 10 13 8 14 10 21 6 23 3 19 1 14-4 27-6 23-9 19-8 14-13 16-10 11-14 11-11 8-14 8-19 8-20 6-16 3-10 1h-22l-14-1-28-7-13-5-20-10-14-10-11-9-16-16-10-13-10-17-7-16-6-20-3-17-2-25v-150z" fill="#FDFDFD"/>
<path transform="translate(279,159)" d="m0 0h180v45l-1 128-17 1h-162l-1-67v-106z" fill="#0B0877"/>
</svg>
